<mxfile host="app.diagrams.net" agent="Mozilla/5.0 (X11; Linux x86_64; rv:128.0) Gecko/20100101 Firefox/128.0" version="28.1.0">
  <diagram name="Page-1" id="YO6fI4UiuW-zHiKsXfEC">
    <mxGraphModel dx="1001" dy="1164" grid="0" gridSize="10" guides="1" tooltips="1" connect="1" arrows="1" fold="1" page="1" pageScale="1" pageWidth="1000" pageHeight="400" math="0" shadow="0">
      <root>
        <mxCell id="0" />
        <mxCell id="1" parent="0" />
        <mxCell id="ppNzNEcFW-80UwDM_199-4" value="VPC" style="sketch=0;outlineConnect=0;gradientColor=none;html=1;whiteSpace=wrap;fontSize=12;fontStyle=0;shape=mxgraph.aws4.group;grIcon=mxgraph.aws4.group_vpc;strokeColor=#879196;fillColor=none;verticalAlign=top;align=left;spacingLeft=30;fontColor=#879196;dashed=0;" parent="1" vertex="1">
          <mxGeometry x="123" y="47" width="465" height="322" as="geometry" />
        </mxCell>
        <mxCell id="2idz3_mgWi_Wmi4WDmG8-22" value="" style="endArrow=classic;html=1;rounded=0;fontSize=12;startSize=8;endSize=8;curved=1;entryX=1;entryY=0.5;entryDx=0;entryDy=0;entryPerimeter=0;exitX=0;exitY=0.5;exitDx=0;exitDy=0;exitPerimeter=0;" edge="1" parent="1" source="2idz3_mgWi_Wmi4WDmG8-3" target="faw6b0mYo4fymj4pTFK4-1">
          <mxGeometry width="50" height="50" relative="1" as="geometry">
            <mxPoint x="431" y="-45" as="sourcePoint" />
            <mxPoint x="481" y="-95" as="targetPoint" />
          </mxGeometry>
        </mxCell>
        <mxCell id="2idz3_mgWi_Wmi4WDmG8-5" value="eu-west-1b (private subnet)" style="points=[[0,0],[0.25,0],[0.5,0],[0.75,0],[1,0],[1,0.25],[1,0.5],[1,0.75],[1,1],[0.75,1],[0.5,1],[0.25,1],[0,1],[0,0.75],[0,0.5],[0,0.25]];outlineConnect=0;gradientColor=none;html=1;whiteSpace=wrap;fontSize=12;fontStyle=0;container=1;pointerEvents=0;collapsible=0;recursiveResize=0;shape=mxgraph.aws4.group;grIcon=mxgraph.aws4.group_security_group;grStroke=0;strokeColor=#00A4A6;fillColor=#E6F6F7;verticalAlign=top;align=left;spacingLeft=30;fontColor=#147EBA;dashed=0;" vertex="1" parent="1">
          <mxGeometry x="378" y="189" width="187" height="146" as="geometry" />
        </mxCell>
        <mxCell id="2idz3_mgWi_Wmi4WDmG8-1" value="eu-west-1a (private subnet)" style="points=[[0,0],[0.25,0],[0.5,0],[0.75,0],[1,0],[1,0.25],[1,0.5],[1,0.75],[1,1],[0.75,1],[0.5,1],[0.25,1],[0,1],[0,0.75],[0,0.5],[0,0.25]];outlineConnect=0;gradientColor=none;html=1;whiteSpace=wrap;fontSize=12;fontStyle=0;container=1;pointerEvents=0;collapsible=0;recursiveResize=0;shape=mxgraph.aws4.group;grIcon=mxgraph.aws4.group_security_group;grStroke=0;strokeColor=#00A4A6;fillColor=#E6F6F7;verticalAlign=top;align=left;spacingLeft=30;fontColor=#147EBA;dashed=0;" vertex="1" parent="1">
          <mxGeometry x="163" y="189" width="187" height="146" as="geometry" />
        </mxCell>
        <mxCell id="ppNzNEcFW-80UwDM_199-5" value="eu-west-1a (public subnet)" style="sketch=0;outlineConnect=0;gradientColor=none;html=1;whiteSpace=wrap;fontSize=12;fontStyle=0;shape=mxgraph.aws4.group;grIcon=mxgraph.aws4.group_subnet;strokeColor=#879196;fillColor=none;verticalAlign=top;align=left;spacingLeft=30;fontColor=#879196;dashed=1;" parent="1" vertex="1">
          <mxGeometry x="163" y="74.5" width="183" height="102" as="geometry" />
        </mxCell>
        <mxCell id="aBk0e4fkvTpgOlKFJHKp-1" value="Actor" style="shape=umlActor;verticalLabelPosition=bottom;verticalAlign=top;html=1;outlineConnect=0;" parent="1" vertex="1">
          <mxGeometry x="35" y="106" width="30" height="60" as="geometry" />
        </mxCell>
        <mxCell id="aBk0e4fkvTpgOlKFJHKp-3" value="" style="endArrow=classic;html=1;rounded=0;fontSize=12;startSize=8;endSize=8;curved=1;exitX=1;exitY=0.3333333333333333;exitDx=0;exitDy=0;exitPerimeter=0;entryX=0;entryY=0.5;entryDx=0;entryDy=0;entryPerimeter=0;" parent="1" source="aBk0e4fkvTpgOlKFJHKp-1" target="faw6b0mYo4fymj4pTFK4-1" edge="1">
          <mxGeometry width="50" height="50" relative="1" as="geometry">
            <mxPoint x="109" y="126" as="sourcePoint" />
            <mxPoint x="130" y="127" as="targetPoint" />
          </mxGeometry>
        </mxCell>
        <mxCell id="aBk0e4fkvTpgOlKFJHKp-8" value="&lt;h1 style=&quot;margin-top: 0px;&quot;&gt;VPC Networking Services lab&lt;br&gt;&lt;/h1&gt;&lt;p&gt;1. Client connects to external ALB&lt;br&gt;&lt;/p&gt;&lt;p&gt;2. Instances behind external ALB connect to internal backend NLB&lt;br&gt;&lt;/p&gt;&lt;p&gt;3. Exchange happens between API and MongoDB&lt;br&gt;&lt;/p&gt;&lt;p&gt;4. Answer is returned to client&lt;br&gt;&lt;/p&gt;" style="text;html=1;whiteSpace=wrap;overflow=hidden;rounded=0;" parent="1" vertex="1">
          <mxGeometry x="646" y="75" width="341" height="180" as="geometry" />
        </mxCell>
        <mxCell id="faw6b0mYo4fymj4pTFK4-1" value="IGW" style="outlineConnect=0;dashed=0;verticalLabelPosition=bottom;verticalAlign=top;align=center;html=1;shape=mxgraph.aws3.internet_gateway;fillColor=#F58534;gradientColor=none;" parent="1" vertex="1">
          <mxGeometry x="99" y="106" width="44" height="42" as="geometry" />
        </mxCell>
        <mxCell id="ODNIWE-asfguKpytUvqN-4" value="" style="endArrow=none;dashed=1;html=1;rounded=0;fontSize=12;startSize=8;endSize=8;curved=1;entryX=0.5;entryY=0;entryDx=0;entryDy=0;entryPerimeter=0;exitX=0.5;exitY=1;exitDx=0;exitDy=0;exitPerimeter=0;startArrow=classic;startFill=1;endFill=0;" parent="1" source="ODNIWE-asfguKpytUvqN-3" edge="1" target="ppNzNEcFW-80UwDM_199-2">
          <mxGeometry width="50" height="50" relative="1" as="geometry">
            <mxPoint x="318" y="410" as="sourcePoint" />
            <mxPoint x="429.75" y="141.16000000000008" as="targetPoint" />
            <Array as="points">
              <mxPoint x="305" y="232" />
            </Array>
          </mxGeometry>
        </mxCell>
        <mxCell id="ppNzNEcFW-80UwDM_199-2" value="MongoDB" style="outlineConnect=0;dashed=0;verticalLabelPosition=bottom;verticalAlign=top;align=center;html=1;shape=mxgraph.aws3.ec2;fillColor=#F58534;gradientColor=none;" parent="1" vertex="1">
          <mxGeometry x="238.25" y="244" width="32.5" height="43" as="geometry" />
        </mxCell>
        <mxCell id="ppNzNEcFW-80UwDM_199-7" value="eu-west-1b (public subnet)" style="sketch=0;outlineConnect=0;gradientColor=none;html=1;whiteSpace=wrap;fontSize=12;fontStyle=0;shape=mxgraph.aws4.group;grIcon=mxgraph.aws4.group_subnet;strokeColor=#879196;fillColor=none;verticalAlign=top;align=left;spacingLeft=30;fontColor=#879196;dashed=1;" parent="1" vertex="1">
          <mxGeometry x="378" y="75" width="184" height="105" as="geometry" />
        </mxCell>
        <mxCell id="2idz3_mgWi_Wmi4WDmG8-2" value="API" style="outlineConnect=0;dashed=0;verticalLabelPosition=bottom;verticalAlign=top;align=center;html=1;shape=mxgraph.aws3.ec2;fillColor=#F58534;gradientColor=none;" vertex="1" parent="1">
          <mxGeometry x="410" y="109" width="32.5" height="43" as="geometry" />
        </mxCell>
        <mxCell id="2idz3_mgWi_Wmi4WDmG8-3" value="NAT GW" style="outlineConnect=0;dashed=0;verticalLabelPosition=bottom;verticalAlign=top;align=center;html=1;shape=mxgraph.aws3.vpc_nat_gateway;fillColor=#F58534;gradientColor=none;" vertex="1" parent="1">
          <mxGeometry x="487" y="109.5" width="41" height="38" as="geometry" />
        </mxCell>
        <mxCell id="2idz3_mgWi_Wmi4WDmG8-6" value="MongoDB" style="outlineConnect=0;dashed=0;verticalLabelPosition=bottom;verticalAlign=top;align=center;html=1;shape=mxgraph.aws3.ec2;fillColor=#F58534;gradientColor=none;" vertex="1" parent="1">
          <mxGeometry x="453.75" y="246" width="32.5" height="43" as="geometry" />
        </mxCell>
        <mxCell id="2idz3_mgWi_Wmi4WDmG8-7" value="" style="endArrow=classic;html=1;rounded=0;fontSize=12;startSize=8;endSize=8;curved=1;entryX=0.5;entryY=1;entryDx=0;entryDy=0;entryPerimeter=0;exitX=0.5;exitY=0;exitDx=0;exitDy=0;exitPerimeter=0;dashed=1;" edge="1" parent="1" source="2idz3_mgWi_Wmi4WDmG8-6" target="2idz3_mgWi_Wmi4WDmG8-3">
          <mxGeometry width="50" height="50" relative="1" as="geometry">
            <mxPoint x="501" y="297" as="sourcePoint" />
            <mxPoint x="551" y="247" as="targetPoint" />
            <Array as="points">
              <mxPoint x="512" y="222" />
            </Array>
          </mxGeometry>
        </mxCell>
        <mxCell id="2idz3_mgWi_Wmi4WDmG8-9" value="" style="edgeStyle=none;curved=1;rounded=0;orthogonalLoop=1;jettySize=auto;html=1;exitX=0;exitY=0.5;exitDx=0;exitDy=0;exitPerimeter=0;fontSize=12;startSize=8;endSize=8;entryX=0.932;entryY=0.466;entryDx=0;entryDy=0;entryPerimeter=0;" edge="1" parent="1" source="ppNzNEcFW-80UwDM_199-3" target="2idz3_mgWi_Wmi4WDmG8-18">
          <mxGeometry relative="1" as="geometry">
            <mxPoint x="284" y="125" as="sourcePoint" />
            <mxPoint x="295" y="36" as="targetPoint" />
          </mxGeometry>
        </mxCell>
        <mxCell id="2idz3_mgWi_Wmi4WDmG8-13" value="" style="endArrow=classic;startArrow=classic;html=1;rounded=0;fontSize=12;startSize=8;endSize=8;curved=1;exitX=1;exitY=0.5;exitDx=0;exitDy=0;exitPerimeter=0;entryX=0.088;entryY=0.498;entryDx=0;entryDy=0;entryPerimeter=0;" edge="1" parent="1" source="faw6b0mYo4fymj4pTFK4-1" target="2idz3_mgWi_Wmi4WDmG8-18">
          <mxGeometry width="50" height="50" relative="1" as="geometry">
            <mxPoint x="187" y="-55" as="sourcePoint" />
            <mxPoint x="92" y="57" as="targetPoint" />
          </mxGeometry>
        </mxCell>
        <mxCell id="2idz3_mgWi_Wmi4WDmG8-15" value="" style="points=[];aspect=fixed;html=1;align=center;shadow=0;dashed=0;fillColor=#FF6A00;strokeColor=none;shape=mxgraph.alibaba_cloud.clb_classic_load_balancer_01;" vertex="1" parent="1">
          <mxGeometry x="339" y="244" width="47.400000000000006" height="40.2" as="geometry" />
        </mxCell>
        <mxCell id="2idz3_mgWi_Wmi4WDmG8-16" value="" style="endArrow=classic;startArrow=classic;html=1;rounded=0;fontSize=12;startSize=8;endSize=8;curved=1;exitX=1;exitY=0.5;exitDx=0;exitDy=0;exitPerimeter=0;entryX=0.181;entryY=0.528;entryDx=0;entryDy=0;entryPerimeter=0;" edge="1" parent="1" source="ppNzNEcFW-80UwDM_199-2" target="2idz3_mgWi_Wmi4WDmG8-15">
          <mxGeometry width="50" height="50" relative="1" as="geometry">
            <mxPoint x="617" y="354" as="sourcePoint" />
            <mxPoint x="667" y="304" as="targetPoint" />
          </mxGeometry>
        </mxCell>
        <mxCell id="2idz3_mgWi_Wmi4WDmG8-17" value="" style="endArrow=classic;startArrow=classic;html=1;rounded=0;fontSize=12;startSize=8;endSize=8;curved=1;exitX=0.723;exitY=0.583;exitDx=0;exitDy=0;exitPerimeter=0;entryX=0;entryY=0.5;entryDx=0;entryDy=0;entryPerimeter=0;" edge="1" parent="1" source="2idz3_mgWi_Wmi4WDmG8-15" target="2idz3_mgWi_Wmi4WDmG8-6">
          <mxGeometry width="50" height="50" relative="1" as="geometry">
            <mxPoint x="695" y="321" as="sourcePoint" />
            <mxPoint x="456" y="267" as="targetPoint" />
          </mxGeometry>
        </mxCell>
        <mxCell id="2idz3_mgWi_Wmi4WDmG8-18" value="" style="points=[];aspect=fixed;html=1;align=center;shadow=0;dashed=0;fillColor=#FF6A00;strokeColor=none;shape=mxgraph.alibaba_cloud.alb_application_load_balancer_02;" vertex="1" parent="1">
          <mxGeometry x="168" y="105.5" width="44" height="44" as="geometry" />
        </mxCell>
        <mxCell id="ppNzNEcFW-80UwDM_199-3" value="API" style="outlineConnect=0;dashed=0;verticalLabelPosition=bottom;verticalAlign=top;align=center;html=1;shape=mxgraph.aws3.ec2;fillColor=#F58534;gradientColor=none;" parent="1" vertex="1">
          <mxGeometry x="228" y="104" width="32.5" height="43" as="geometry" />
        </mxCell>
        <mxCell id="ODNIWE-asfguKpytUvqN-3" value="NAT GW" style="outlineConnect=0;dashed=0;verticalLabelPosition=bottom;verticalAlign=top;align=center;html=1;shape=mxgraph.aws3.vpc_nat_gateway;fillColor=#F58534;gradientColor=none;" parent="1" vertex="1">
          <mxGeometry x="284" y="106" width="41" height="38" as="geometry" />
        </mxCell>
        <mxCell id="2idz3_mgWi_Wmi4WDmG8-25" value="" style="endArrow=classic;html=1;rounded=0;fontSize=12;startSize=8;endSize=8;curved=1;exitX=0.5;exitY=1;exitDx=0;exitDy=0;exitPerimeter=0;entryX=0.422;entryY=0.05;entryDx=0;entryDy=0;entryPerimeter=0;" edge="1" parent="1" source="ppNzNEcFW-80UwDM_199-3" target="2idz3_mgWi_Wmi4WDmG8-15">
          <mxGeometry width="50" height="50" relative="1" as="geometry">
            <mxPoint x="434" y="-109" as="sourcePoint" />
            <mxPoint x="484" y="-159" as="targetPoint" />
            <Array as="points">
              <mxPoint x="244" y="257" />
            </Array>
          </mxGeometry>
        </mxCell>
        <mxCell id="2idz3_mgWi_Wmi4WDmG8-26" value="" style="endArrow=classic;html=1;rounded=0;fontSize=12;startSize=8;endSize=8;curved=1;exitX=0.5;exitY=1;exitDx=0;exitDy=0;exitPerimeter=0;entryX=0.542;entryY=0.156;entryDx=0;entryDy=0;entryPerimeter=0;" edge="1" parent="1" source="2idz3_mgWi_Wmi4WDmG8-2" target="2idz3_mgWi_Wmi4WDmG8-15">
          <mxGeometry width="50" height="50" relative="1" as="geometry">
            <mxPoint x="475" y="34" as="sourcePoint" />
            <mxPoint x="525" y="-16" as="targetPoint" />
            <Array as="points">
              <mxPoint x="426" y="233" />
            </Array>
          </mxGeometry>
        </mxCell>
      </root>
    </mxGraphModel>
  </diagram>
</mxfile>
